<svg width="32" height="32" viewBox="0 0 32 32" fill="none" xmlns="http://www.w3.org/2000/svg">
<path d="M32 16C32 24.8366 24.8366 32 16 32C7.16344 32 0 24.8366 0 16C0 7.16344 7.16344 0 16 0C24.8366 0 32 7.16344 32 16Z" fill="url(#paint0_linear)"/>
<path d="M19.9588 20.627C19.9588 20.627 19.8363 19.6772 20.1576 19.7153C20.7598 19.7866 21.2393 19.7102 21.5959 19.4859C21.958 19.2623 22.164 18.9397 22.214 18.5182C22.241 18.2901 22.2138 18.0782 22.1325 17.8825C22.0517 17.6819 21.9397 17.5127 21.7965 17.3751C21.6592 17.2331 21.4675 17.0872 21.2211 16.9373C20.9808 16.7831 20.7487 16.6526 20.5248 16.5456C20.3064 16.4392 20.0336 16.3038 19.7065 16.1394C19.3793 15.9749 19.0999 15.8262 18.8681 15.6931C18.5596 15.5107 18.3017 15.3419 18.0946 15.1866C17.888 15.0264 17.6804 14.8283 17.4718 14.5924C17.2691 14.3522 17.1258 14.0762 17.0417 13.7645C16.9576 13.4529 16.9381 13.1061 16.9833 12.7243C17.0409 12.2383 17.2011 11.8148 17.464 11.4537C17.7328 11.0883 18.0685 10.8087 18.4711 10.615C18.8742 10.4164 19.3137 10.2824 19.7896 10.2131C20.2708 10.1444 20.7692 10.1406 21.2846 10.2016C22.1961 10.3096 22.9735 10.6204 23.6169 11.1341C23.8767 11.3401 24.0975 11.5597 24.2792 11.7928C24.6758 12.3017 24.2177 12.9326 23.5809 12.9354C23.1591 12.9372 22.7853 12.6275 22.4287 12.3985C22.0737 12.1705 21.571 12.0533 21.0722 11.9943C20.5677 11.9345 20.1442 11.9799 19.8018 12.1304C19.4599 12.2759 19.2637 12.562 19.2132 12.9884C19.1897 13.1868 19.2412 13.3789 19.3677 13.5649C19.4943 13.7508 19.6825 13.9265 19.9325 14.0919C20.1885 14.253 20.4381 14.3982 20.6814 14.5276C20.9306 14.6526 21.2164 14.7946 21.5387 14.9535C21.867 15.108 22.1135 15.2328 22.2783 15.3277C22.5717 15.4982 22.8274 15.6618 23.0454 15.8184C23.2635 15.9749 23.4753 16.1609 23.6808 16.3764C23.8869 16.5868 24.0479 16.807 24.1637 17.037C24.2855 17.2626 24.3728 17.5244 24.4255 17.8223C24.4783 18.1202 24.4844 18.4402 24.4438 18.7824C24.3281 19.7593 23.8422 20.4937 22.9862 20.9857C22.2704 21.3971 21.3166 21.5728 20.3541 21.54C19.9431 21.5261 19.9588 20.627 19.9588 20.627Z" fill="url(#paint1_linear)"/>
<path d="M16.8712 19.3873C17.4235 19.3873 17.8712 19.835 17.8712 20.3873V20.8712C17.8712 21.281 17.539 21.6132 17.1293 21.6132H16.576C16.0341 21.6132 15.5908 21.1816 15.5763 20.6399L15.5709 20.4367V20.3873C15.5709 19.835 16.0186 19.3873 16.5709 19.3873H16.6216H16.8712Z" fill="url(#paint2_linear)"/>
<path d="M15.8236 16.5402C15.9309 16.2997 15.9243 16.0236 15.8055 15.7885L13.2681 10.7665C12.8982 10.0344 11.8529 10.0344 11.483 10.7665L6.73312 20.1673C6.39705 20.8325 6.88044 21.6183 7.62566 21.6183H12.9268C13.3098 21.6183 13.657 21.3931 13.8132 21.0434C14.0998 20.4013 13.63 19.677 12.9268 19.677H10.5682C9.82301 19.677 9.33962 18.8912 9.67569 18.2261L11.483 14.649C11.8529 13.917 12.8982 13.917 13.2681 14.649L14.2428 16.5781C14.5754 17.2363 15.5229 17.2136 15.8236 16.5402Z" fill="url(#paint3_linear)"/>
<defs>
<linearGradient id="paint0_linear" x1="-1.5" y1="3.5" x2="31" y2="29" gradientUnits="userSpaceOnUse">
<stop stop-color="#D5D4D0"/>
<stop offset="0.059758" stop-color="#D5D4D0"/>
<stop offset="0.677318" stop-color="#EEEEEC"/>
</linearGradient>
<linearGradient id="paint1_linear" x1="24" y1="20" x2="17.5" y2="11.5" gradientUnits="userSpaceOnUse">
<stop stop-color="#434343"/>
<stop offset="1"/>
</linearGradient>
<linearGradient id="paint2_linear" x1="6" y1="15.3092" x2="17.8712" y2="15.3092" gradientUnits="userSpaceOnUse">
<stop stop-color="#434343"/>
<stop offset="1"/>
</linearGradient>
<linearGradient id="paint3_linear" x1="6" y1="15.3092" x2="17.8712" y2="15.3092" gradientUnits="userSpaceOnUse">
<stop stop-color="#434343"/>
<stop offset="1"/>
</linearGradient>
</defs>
</svg>
